<svg width="18" height="17" viewBox="0 0 18 17" fill="none" xmlns="http://www.w3.org/2000/svg">
<g clip-path="url(#clip0_70_217)">
<path d="M9.84001 8.64444C9.85001 10.8444 8.38001 12.5944 6.54001 12.5344H6.48001C4.61001 12.4544 3.08001 10.5744 3.05001 8.35444C2.98425 7.50611 3.21289 6.66104 3.6974 5.96159C4.18192 5.26214 4.8927 4.75106 5.71001 4.51444C5.79572 4.49548 5.88257 4.48212 5.97001 4.47444C6.11605 4.4578 6.26306 4.45112 6.41001 4.45444L6.49001 4.47444H6.50001C6.56755 4.47279 6.63496 4.48122 6.70001 4.49944C6.80443 4.50227 6.90829 4.51567 7.01001 4.53944C7.13323 4.57736 7.25355 4.62415 7.37001 4.67944H7.38001C7.71999 4.81554 8.03444 5.00826 8.31001 5.24944L7.85001 6.04944C7.74001 5.95944 7.63001 5.87944 7.51001 5.79944C7.41653 5.7435 7.31968 5.69341 7.22001 5.64944C7.12573 5.60678 7.02887 5.57004 6.93001 5.53944H6.92001C6.78622 5.50159 6.64878 5.47813 6.51001 5.46944L6.41001 5.45944C6.35648 5.45746 6.30288 5.46081 6.25001 5.46944C6.12937 5.46908 6.00893 5.47912 5.89001 5.49944C5.88001 5.49944 5.86001 5.50944 5.85001 5.50944C5.24474 5.6966 4.72061 6.08308 4.36292 6.606C4.00523 7.12891 3.83503 7.75749 3.88001 8.38944C3.84229 9.14265 4.0868 9.88285 4.56577 10.4654C5.04473 11.0479 5.72372 11.4309 6.47001 11.5394H6.50001C6.85938 11.5202 7.21106 11.4279 7.53355 11.2682C7.85604 11.1084 8.14256 10.8846 8.37562 10.6103C8.60867 10.3361 8.78335 10.0172 8.88899 9.6732C8.99463 9.32917 9.029 8.96721 8.99001 8.60944C8.99609 7.9468 8.8084 7.29683 8.45001 6.73944L9.13001 6.17944C9.58718 6.92092 9.83271 7.77338 9.84001 8.64444Z" fill="#001F24"/>
<path d="M7.47999 7.25445L6.64999 7.15445C6.65736 6.82304 6.61351 6.49248 6.51999 6.17445L6.48999 6.05445C6.42999 5.90445 6.37999 5.75445 6.30999 5.61445L6.24999 5.46445C6.20938 5.36497 6.16262 5.26812 6.10999 5.17445C6.08999 5.13445 6.06999 5.10445 6.04999 5.06445C5.95999 4.90445 5.85999 4.75445 5.77999 4.61445C5.75904 4.57951 5.73565 4.54609 5.70999 4.51445C5.50432 4.2122 5.2735 3.92785 5.01999 3.66445L5.55999 2.93445C5.91192 3.31239 6.22982 3.72063 6.50999 4.15445C6.52999 4.19445 6.55999 4.23445 6.57999 4.27445C6.62612 4.34601 6.66626 4.42127 6.69999 4.49945C6.74573 4.55896 6.7859 4.62257 6.81999 4.68945C6.89861 4.83384 6.9655 4.98433 7.01999 5.13945C7.03999 5.18945 7.05999 5.22945 7.07999 5.27945C7.14126 5.39675 7.18827 5.52097 7.21999 5.64945C7.26041 5.7391 7.2906 5.83303 7.30999 5.92945V5.94945C7.44196 6.37129 7.49949 6.81288 7.47999 7.25445Z" fill="#001F24"/>
<path d="M7.83999 3.27448C7.7357 3.75712 7.57806 4.22667 7.36999 4.67448C7.34999 4.71448 7.32999 4.76448 7.30999 4.81448C7.25999 4.92448 7.19999 5.02448 7.14999 5.13448C7.12999 5.18448 7.09999 5.22448 7.07999 5.27448C7.02999 5.36448 6.97999 5.44448 6.92999 5.53448L6.83999 5.68448C6.76999 5.79448 6.68999 5.93448 6.60999 6.05448L6.51999 6.17448C6.23077 6.57926 5.88759 6.94262 5.49999 7.25448L5.01999 6.42448C5.30032 6.19593 5.55513 5.93777 5.77999 5.65448C5.82001 5.60353 5.85676 5.55009 5.88999 5.49448C5.96999 5.38448 6.03999 5.28448 6.10999 5.17448C6.12999 5.13448 6.15999 5.10448 6.17999 5.06448C6.26999 4.91448 6.34999 4.76448 6.42999 4.61448C6.44999 4.56448 6.46999 4.51448 6.48999 4.47448C6.51999 4.40448 6.54999 4.33448 6.57999 4.27448C6.59999 4.23448 6.60999 4.19448 6.62999 4.15448C6.80419 3.77072 6.94472 3.37256 7.04999 2.96448L7.83999 3.27448Z" fill="#001F24"/>
<path d="M12.76 7.99943C12.7531 7.88816 12.7364 7.77773 12.71 7.66943C12.6672 7.27024 12.5902 6.87546 12.48 6.48943C12.45 6.38943 12.42 6.29943 12.4 6.20943C12.2959 5.86794 12.169 5.53385 12.02 5.20943C12 5.16943 11.98 5.11943 11.96 5.07943C11.86 4.86943 11.75 4.64943 11.62 4.41943L11.53 4.24943L11.42 4.07943L11.37 4.00943C11.25 3.82943 11.13 3.64943 11 3.47943C10.457 2.73469 9.75754 2.11782 8.95079 1.67211C8.14403 1.22641 7.24951 0.962679 6.32999 0.899426H6.20999C5.40269 0.885131 4.60206 1.04782 3.86437 1.37607C3.12668 1.70432 2.46983 2.19015 1.93999 2.79943C0.632476 4.30244 -0.0602657 6.24319 -5.92601e-06 8.23443C0.0399941 12.4144 2.94999 15.9444 6.47999 16.1044H6.54999C7.28728 16.122 8.02041 15.9892 8.70469 15.7141C9.38896 15.439 10.01 15.0274 10.53 14.5044C10.59 14.4544 10.64 14.4044 10.69 14.3544C10.9963 14.0585 11.265 13.726 11.49 13.3644L11.61 13.1844C11.6404 13.14 11.6671 13.0932 11.69 13.0444C11.7102 13.0201 11.727 12.9932 11.74 12.9644C11.8751 12.7493 11.989 12.5216 12.08 12.2844C12.15 12.1244 12.22 11.9644 12.29 11.7944C12.34 11.6344 12.4 11.4644 12.46 11.2844C12.5423 11.0091 12.6058 10.7284 12.65 10.4444C12.66 10.3844 12.67 10.3344 12.68 10.2744C12.7449 9.90104 12.7817 9.52332 12.79 9.14443V9.09943C12.79 8.99943 12.8 8.88943 12.8 8.78943C12.8 8.53443 12.78 8.28443 12.76 7.99943ZM11.45 9.73943C11.4153 10.0816 11.3483 10.4198 11.25 10.7494C11.22 10.8494 11.19 10.9494 11.14 11.0794C11.0041 11.49 10.8194 11.8828 10.59 12.2494C10.52 12.3594 10.46 12.4594 10.39 12.5594C10.35 12.6094 10.32 12.6594 10.28 12.7094C9.86502 13.3022 9.31257 13.7857 8.66993 14.1183C8.02729 14.4509 7.31361 14.6229 6.58999 14.6194C6.54973 14.6211 6.50943 14.6177 6.46999 14.6094C3.63999 14.4894 1.31999 11.6394 1.27999 8.27943C1.23409 6.67573 1.79066 5.11303 2.83999 3.89943C3.26785 3.41385 3.79629 3.02725 4.38861 2.76649C4.98094 2.50573 5.62293 2.37706 6.26999 2.38943L6.32999 2.39943C7.13085 2.46158 7.90631 2.70891 8.59525 3.12193C9.2842 3.53495 9.86778 4.10236 10.3 4.77943L10.35 4.86943C10.4 4.93943 10.45 5.01943 10.51 5.09943C10.6817 5.39498 10.8321 5.70243 10.96 6.01943C11.0411 6.19148 11.1113 6.3685 11.17 6.54943L11.18 6.62943C11.2732 6.92495 11.35 7.22541 11.41 7.52943C11.475 7.93303 11.5118 8.34069 11.52 8.74943C11.522 9.07907 11.4986 9.40838 11.45 9.73443V9.73943Z" fill="#001F24"/>
<path d="M14.51 7.81452H14.45C14.3669 7.82284 14.2835 7.82618 14.2 7.82452C13.8621 7.82644 13.5244 7.80304 13.19 7.75452C13.5199 7.81511 13.8546 7.84524 14.19 7.84452C14.34 7.84452 14.48 7.82452 14.63 7.81452C14.66 7.81452 14.68 7.80452 14.7 7.80452C14.637 7.81283 14.5735 7.81617 14.51 7.81452Z" fill="#001F24"/>
<path d="M11.68 5.60445L11.69 5.61445V5.56445C11.683 5.57661 11.6796 5.59045 11.68 5.60445Z" fill="#001F24"/>
<path d="M14.51 7.81444H14.63C14.66 7.81444 14.68 7.80444 14.7 7.80444C14.637 7.81276 14.5735 7.8161 14.51 7.81444Z" fill="#001F24"/>
<path d="M17.99 5.48443C17.9 4.28443 16.28 3.37443 14.19 3.37443C13.2193 3.34364 12.2595 3.58619 11.42 4.07443C11.0142 4.30684 10.6948 4.66481 10.51 5.09443C10.6817 5.38999 10.8321 5.69744 10.96 6.01443C11.0411 6.18648 11.1113 6.3635 11.17 6.54443L11.18 6.62443C11.2732 6.91996 11.35 7.22042 11.41 7.52443C11.4751 7.92804 11.5118 8.3357 11.52 8.74443C11.5223 9.07575 11.4989 9.40674 11.45 9.73443C11.4153 10.0766 11.3483 10.4148 11.25 10.7444C11.22 10.8444 11.19 10.9444 11.14 11.0744C11.0041 11.485 10.8194 11.8778 10.59 12.2444C10.52 12.3544 10.46 12.4544 10.39 12.5544V13.8644C10.3911 14.0852 10.4388 14.3033 10.53 14.5044C10.6928 14.84 10.9455 15.1239 11.26 15.3244C11.3726 15.401 11.4895 15.4711 11.61 15.5344C12.4124 15.9271 13.2969 16.1225 14.19 16.1044C15.0863 16.1225 15.9741 15.9271 16.78 15.5344C16.8944 15.4753 17.0047 15.4085 17.11 15.3344C17.3699 15.1839 17.5876 14.9703 17.7432 14.7134C17.8987 14.4564 17.9871 14.1645 18 13.8644V5.57443C18 5.54443 17.99 5.51443 17.99 5.48443ZM16.7 13.8644C16.7 13.9544 16.62 14.1044 16.38 14.2644C16.32 14.3044 16.24 14.3444 16.17 14.3844C15.5447 14.646 14.8738 14.7815 14.196 14.7832C13.5182 14.7849 12.8467 14.6528 12.22 14.3944C12.15 14.3444 12.07 14.3044 12 14.2544C11.77 14.1044 11.69 13.9444 11.69 13.8644V12.9444C11.71 12.9544 11.72 12.9644 11.74 12.9644C12.5085 13.3148 13.3456 13.4891 14.19 13.4744C15.056 13.4896 15.9141 13.3084 16.7 12.9444V13.8644ZM16.7 11.2344C16.7 11.3544 16.54 11.5744 16.17 11.7544C14.9313 12.2726 13.5392 12.2869 12.29 11.7944C12.26 11.7844 12.24 11.7644 12.21 11.7544C11.88 11.5944 11.71 11.3944 11.69 11.2744V10.1044C11.9962 10.2535 12.3182 10.3676 12.65 10.4444C13.1528 10.5752 13.6706 10.6391 14.19 10.6344C15.056 10.6496 15.9141 10.4684 16.7 10.1044V11.2344ZM16.7 8.40443C16.7 8.51443 16.54 8.73443 16.17 8.91443C15.0993 9.36072 13.9113 9.44156 12.79 9.14443C12.5908 9.0834 12.3969 9.00649 12.21 8.91443C11.88 8.74443 11.71 8.54443 11.69 8.43443V7.31443C11.77 7.35443 11.86 7.39443 11.96 7.43443C12.1458 7.50971 12.3362 7.57317 12.53 7.62443H12.54C12.6 7.63443 12.65 7.65443 12.71 7.66443C12.8677 7.70587 13.0281 7.73595 13.19 7.75443C13.5245 7.80296 13.8621 7.82636 14.2 7.82443C14.2835 7.82609 14.367 7.82275 14.45 7.81443H14.51C14.5735 7.81609 14.637 7.81275 14.7 7.80443L15 7.77443C15.4904 7.72981 15.972 7.61532 16.43 7.43443C16.53 7.39443 16.61 7.35443 16.7 7.31443V8.40443ZM16.7 5.61443C16.7 5.72443 16.54 5.94443 16.17 6.12443C14.9686 6.62636 13.6217 6.65494 12.4 6.20443C12.3343 6.18386 12.2707 6.15707 12.21 6.12443C11.85 5.94443 11.69 5.72443 11.69 5.61443L11.68 5.60443C11.6796 5.59043 11.6831 5.57659 11.69 5.56443C11.7598 5.41297 11.8752 5.2871 12.02 5.20443C12.6797 4.82864 13.4314 4.64505 14.19 4.67443C15.72 4.67443 16.69 5.27443 16.7 5.60443V5.61443Z" fill="#001F24"/>
</g>
<defs>
<clipPath id="clip0_70_217">
<rect width="18" height="15.215" fill="white" transform="translate(0 0.892456)"/>
</clipPath>
</defs>
</svg>
