<svg width="18" height="17" viewBox="0 0 18 17" fill="none" xmlns="http://www.w3.org/2000/svg">
<g clip-path="url(#clip0_70_196)">
<path d="M16.564 16.7325H2.89699C2.15438 16.7325 1.44219 16.4375 0.917086 15.9124C0.391984 15.3873 0.0969849 14.6751 0.0969849 13.9325V0.266479H1.09698V13.9325C1.09698 14.4099 1.28663 14.8677 1.62419 15.2053C1.96176 15.5428 2.4196 15.7325 2.89699 15.7325H16.564V16.7325Z" fill="#001F24"/>
<path d="M4.60999 11.8994C4.39816 11.9 4.19038 11.8415 4.00999 11.7304C3.7497 11.5714 3.56316 11.3156 3.49134 11.0192C3.41953 10.7228 3.46832 10.4099 3.62699 10.1494L6.80999 4.94945C6.89181 4.81548 7.00022 4.6997 7.12853 4.60926C7.25683 4.51881 7.40231 4.45561 7.55598 4.42357C7.70966 4.39152 7.86827 4.3913 8.02203 4.42293C8.17579 4.45456 8.32144 4.51735 8.44999 4.60745L12.572 7.48745L15.872 2.14945C15.9456 2.0108 16.0469 1.8887 16.1695 1.79067C16.2922 1.69264 16.4336 1.62076 16.585 1.57945C16.7365 1.53815 16.8948 1.5283 17.0502 1.5505C17.2057 1.57271 17.3549 1.6265 17.4887 1.70857C17.6226 1.79064 17.7382 1.89924 17.8285 2.02769C17.9187 2.15614 17.9818 2.30172 18.0136 2.45544C18.0455 2.60917 18.0456 2.7678 18.0138 2.92155C17.9821 3.07531 17.9192 3.22093 17.829 3.34945L13.893 9.72345C13.8108 9.85666 13.7023 9.97169 13.5741 10.0615C13.4459 10.1512 13.3007 10.2139 13.1474 10.2455C12.9941 10.2772 12.836 10.2772 12.6827 10.2455C12.5294 10.2139 12.3842 10.1512 12.256 10.0614L8.13699 7.18445L5.58899 11.3494C5.48642 11.5172 5.34257 11.6558 5.17118 11.7521C4.99979 11.8484 4.80657 11.8991 4.60999 11.8994Z" fill="#001F24"/>
</g>
<defs>
<clipPath id="clip0_70_196">
<rect width="17.903" height="16.467" fill="white" transform="translate(0.0969849 0.266479)"/>
</clipPath>
</defs>
</svg>
