<svg width="18" height="19" viewBox="0 0 18 19" fill="none" xmlns="http://www.w3.org/2000/svg">
<g clip-path="url(#clip0_70_239)">
<path d="M15.457 6.01506L15.477 6.03506L4.22701 17.2851C4.03819 17.4659 3.80272 17.5906 3.54701 17.6451L0.587006 18.2051L1.14701 15.2451C1.19504 14.9871 1.32063 14.7498 1.50701 14.5651L12.767 3.31506L14.847 5.39506L15.457 6.01506Z" fill="#001F24"/>
<path d="M17.617 3.8951L16.897 4.6151L16.877 4.5951L14.547 2.2651L14.197 1.9251L14.177 1.8951L14.897 1.1751C15.0177 1.05416 15.1612 0.958208 15.319 0.892742C15.4769 0.827276 15.6461 0.793579 15.817 0.793579C15.9879 0.793579 16.1571 0.827276 16.315 0.892742C16.4729 0.958208 16.6163 1.05416 16.737 1.1751L17.617 2.0451C17.8619 2.29067 17.9994 2.62331 17.9994 2.9701C17.9994 3.31689 17.8619 3.64954 17.617 3.8951Z" fill="#001F24"/>
</g>
<defs>
<clipPath id="clip0_70_239">
<rect width="17.413" height="17.41" fill="white" transform="translate(0.587006 0.795044)"/>
</clipPath>
</defs>
</svg>
