<svg width="19" height="19" viewBox="0 0 19 19" fill="none" xmlns="http://www.w3.org/2000/svg">
<g clip-path="url(#clip0_70_245)">
<path d="M18.037 5.49606C17.802 5.81435 17.499 6.07619 17.15 6.2625C16.8009 6.4488 16.4147 6.55487 16.0195 6.57298C15.6243 6.59109 15.23 6.52078 14.8654 6.36717C14.5008 6.21356 14.1751 5.98052 13.912 5.68506C13.6744 5.99977 13.3669 6.25494 13.0138 6.43043C12.6607 6.60591 12.2716 6.69691 11.8773 6.69623C11.4829 6.69555 11.0942 6.60322 10.7416 6.42651C10.3891 6.24981 10.0825 5.99358 9.846 5.67806C9.61549 5.99571 9.31251 6.25378 8.96223 6.43084C8.61195 6.60789 8.22448 6.69881 7.83201 6.69606C7.43691 6.70209 7.04599 6.61465 6.69112 6.44086C6.33625 6.26708 6.02748 6.01187 5.79001 5.69606C5.57803 5.99885 5.30003 6.24953 4.977 6.42916C4.65397 6.6088 4.29435 6.7127 3.92529 6.73302C3.55623 6.75335 3.18738 6.68956 2.84658 6.54647C2.50578 6.40339 2.20194 6.18475 1.958 5.90706M15.408 17.8961C12.808 17.8961 6.535 17.8961 3.931 17.8961C3.74448 17.9117 3.55679 17.8864 3.38101 17.8221C3.20522 17.7578 3.04557 17.6559 2.91317 17.5236C2.78077 17.3913 2.67879 17.2317 2.61434 17.056C2.5499 16.8803 2.52453 16.6926 2.54 16.5061C2.54 14.7001 2.54 8.47506 2.54 6.66806C2.54857 6.57642 2.53105 6.48424 2.48947 6.40214C2.44789 6.32004 2.38394 6.25137 2.305 6.20406C1.93059 5.93897 1.64367 5.56831 1.48087 5.13941C1.31807 4.71051 1.28679 4.24282 1.391 3.79606L2.862 1.10706H16.862L18.332 4.28706C18.3703 4.61769 18.3191 4.95254 18.1838 5.25666C18.0485 5.56078 17.8342 5.82303 17.563 6.01606C17.4608 6.09499 17.3799 6.19812 17.3275 6.31613C17.2752 6.43414 17.253 6.56333 17.263 6.69206C17.273 8.46006 17.27 14.6471 17.263 16.4161C17.263 17.4281 16.783 17.8901 15.745 17.8921L15.408 17.8961Z" stroke="#001F24" stroke-width="1.3" stroke-miterlimit="10"/>
<path d="M13.73 11.7461V18.2261H5.83002V11.7461C5.83187 11.0394 6.11409 10.3624 6.6147 9.86367C7.1153 9.36494 7.79338 9.08526 8.50002 9.08606H11.06C11.7667 9.08526 12.4447 9.36494 12.9453 9.86367C13.4459 10.3624 13.7282 11.0394 13.73 11.7461Z" fill="#001F24"/>
</g>
<defs>
<clipPath id="clip0_70_245">
<rect width="18.317" height="18.086" fill="white" transform="translate(0.683014 0.457031)"/>
</clipPath>
</defs>
</svg>
