<svg width="18" height="17" viewBox="0 0 18 17" fill="none" xmlns="http://www.w3.org/2000/svg">
<g clip-path="url(#clip0_70_251)">
<path d="M17.497 9.41446L11.047 13.1445C10.8945 13.2308 10.722 13.2757 10.5467 13.2748C10.3714 13.2739 10.1994 13.2271 10.0478 13.1392C9.89614 13.0512 9.77015 12.9252 9.6823 12.7735C9.59446 12.6218 9.54782 12.4497 9.54701 12.2745V9.65446H3.99701V7.35446H9.54701V4.82446C9.54782 4.64917 9.59446 4.47714 9.6823 4.32545C9.77015 4.17376 9.89614 4.04769 10.0478 3.95974C10.1994 3.87179 10.3714 3.82504 10.5467 3.82411C10.722 3.82318 10.8945 3.86812 11.047 3.95446L17.497 7.68446C17.6485 7.77237 17.7743 7.89854 17.8618 8.05035C17.9492 8.20215 17.9952 8.37427 17.9952 8.54946C17.9952 8.72465 17.9492 8.89676 17.8618 9.04857C17.7743 9.20038 17.6485 9.32655 17.497 9.41446Z" fill="#001F24"/>
<path d="M6.89501 16.3815H1.62301C1.21006 16.381 0.814184 16.2166 0.522276 15.9245C0.230368 15.6324 0.0662741 15.2365 0.0660095 14.8235V2.17751C0.0662741 1.76455 0.230368 1.36858 0.522276 1.07648C0.814184 0.784384 1.21006 0.620037 1.62301 0.619507H6.89501C7.0674 0.619507 7.23273 0.687989 7.35463 0.809887C7.47653 0.931786 7.54501 1.09712 7.54501 1.26951C7.54501 1.4419 7.47653 1.60723 7.35463 1.72913C7.23273 1.85103 7.0674 1.91951 6.89501 1.91951H1.62301C1.55476 1.91977 1.48939 1.94707 1.44122 1.99543C1.39305 2.04378 1.36601 2.10925 1.36601 2.17751V14.8235C1.36601 14.8918 1.39305 14.9572 1.44122 15.0056C1.48939 15.0539 1.55476 15.0812 1.62301 15.0815H6.89501C7.0674 15.0815 7.23273 15.15 7.35463 15.2719C7.47653 15.3938 7.54501 15.5591 7.54501 15.7315C7.54501 15.9039 7.47653 16.0692 7.35463 16.1911C7.23273 16.313 7.0674 16.3815 6.89501 16.3815Z" fill="#001F24"/>
</g>
<defs>
<clipPath id="clip0_70_251">
<rect width="17.934" height="15.761" fill="white" transform="translate(0.0660095 0.619507)"/>
</clipPath>
</defs>
</svg>
