<svg width="19" height="17" viewBox="0 0 19 17" fill="none" xmlns="http://www.w3.org/2000/svg">
<g clip-path="url(#clip0_70_202)">
<path d="M17.85 14.11L8.15399 14.2" stroke="#001F24" stroke-width="2.3" stroke-linecap="round" stroke-linejoin="round"/>
<path d="M3.123 15.6449C3.9459 15.6449 4.613 14.9778 4.613 14.1549C4.613 13.332 3.9459 12.6649 3.123 12.6649C2.30009 12.6649 1.633 13.332 1.633 14.1549C1.633 14.9778 2.30009 15.6449 3.123 15.6449Z" stroke="#001F24" stroke-width="1.3" stroke-linecap="round" stroke-linejoin="round"/>
<path d="M17.85 8.4519L8.15399 8.5409" stroke="#001F24" stroke-width="2.3" stroke-linecap="round" stroke-linejoin="round"/>
<path d="M17.85 2.84497L8.15399 2.93497" stroke="#001F24" stroke-width="2.3" stroke-linecap="round" stroke-linejoin="round"/>
<path d="M3.123 4.33498C3.9459 4.33498 4.613 3.66788 4.613 2.84498C4.613 2.02208 3.9459 1.35498 3.123 1.35498C2.30009 1.35498 1.633 2.02208 1.633 2.84498C1.633 3.66788 2.30009 4.33498 3.123 4.33498Z" stroke="#001F24" stroke-width="1.3" stroke-linecap="round" stroke-linejoin="round"/>
<path d="M4.381 7.60291L2.594 9.38991L1.629 8.42491" stroke="#001F24" stroke-width="1.3" stroke-linecap="round" stroke-linejoin="round"/>
</g>
<defs>
<clipPath id="clip0_70_202">
<rect width="18.021" height="15.59" fill="white" transform="translate(0.979004 0.704956)"/>
</clipPath>
</defs>
</svg>
