<svg width="18" height="19" viewBox="0 0 18 19" fill="none" xmlns="http://www.w3.org/2000/svg">
<g clip-path="url(#clip0_70_233)">
<path d="M9.00001 2.80001C9.83112 2.79579 10.6316 3.11318 11.2341 3.68577C11.8365 4.25836 12.1941 5.04176 12.232 5.87201L12.242 6.02401L12.25 6.07601V7.46901H5.75001V6.08001L5.76201 6.01001L5.76801 5.87201C5.80596 5.04176 6.16355 4.25836 6.76596 3.68577C7.36838 3.11318 8.16891 2.79579 9.00001 2.80001ZM9.00001 0.500011C7.57696 0.497207 6.2077 1.0436 5.17752 2.02534C4.14734 3.00709 3.53569 4.34847 3.47001 5.77001C3.4579 5.83602 3.45122 5.90291 3.45001 5.97001V9.77001H14.55V5.97001C14.5488 5.90291 14.5421 5.83602 14.53 5.77001C14.4643 4.34847 13.8527 3.00709 12.8225 2.02534C11.7923 1.0436 10.4231 0.497207 9.00001 0.500011Z" fill="#001F24"/>
<path d="M15.7 9.77998V16.2H2.3V9.77998H15.7ZM17 7.47998H1C0.734784 7.47998 0.48043 7.58534 0.292893 7.77287C0.105357 7.96041 0 8.21476 0 8.47998V17.5C0 17.7652 0.105357 18.0196 0.292893 18.2071C0.48043 18.3946 0.734784 18.5 1 18.5H17C17.2652 18.5 17.5196 18.3946 17.7071 18.2071C17.8946 18.0196 18 17.7652 18 17.5V8.47998C18 8.21476 17.8946 7.96041 17.7071 7.77287C17.5196 7.58534 17.2652 7.47998 17 7.47998Z" fill="#001F24"/>
</g>
<defs>
<clipPath id="clip0_70_233">
<rect width="18" height="18" fill="white" transform="translate(0 0.5)"/>
</clipPath>
</defs>
</svg>
