<svg width="24" height="24" viewBox="0 0 24 24" fill="none" xmlns="http://www.w3.org/2000/svg">
<path fill-rule="evenodd" clip-rule="evenodd" d="M12 0.333313C5.55998 0.333313 0.333313 5.55998 0.333313 12C0.333313 18.44 5.55998 23.6666 12 23.6666C18.44 23.6666 23.6666 18.44 23.6666 12C23.6666 5.55998 18.44 0.333313 12 0.333313ZM19.42 17.635C17.7516 15.605 13.7033 14.9166 12 14.9166C10.2966 14.9166 6.24831 15.605 4.57998 17.635C3.38998 16.0716 2.66665 14.1233 2.66665 12C2.66665 6.85498 6.85498 2.66665 12 2.66665C17.145 2.66665 21.3333 6.85498 21.3333 12C21.3333 14.1233 20.61 16.0716 19.42 17.635ZM7.91665 9.08331C7.91665 6.81998 9.73665 4.99998 12 4.99998C14.2633 4.99998 16.0833 6.81998 16.0833 9.08331C16.0833 11.3466 14.2633 13.1666 12 13.1666C9.73665 13.1666 7.91665 11.3466 7.91665 9.08331Z" fill="#0D61A4"/>
</svg>
