<svg width="25" height="21" viewBox="0 0 25 21" fill="none" xmlns="http://www.w3.org/2000/svg">
<path d="M1.30001 0.799906C0.749965 0.799906 0.299927 1.24991 0.299927 1.7999C0.299927 2.3499 0.749965 2.7999 1.30001 2.7999H3.5192L6.14442 13.2999C6.36644 14.1899 7.16451 14.7999 8.08158 14.7999H19.5515C20.4536 14.7999 21.2197 14.2019 21.4577 13.3309L24.0519 3.7999H7.30052L7.80056 5.7999H21.4577L19.5515 12.7999H8.08158L5.45636 2.2999C5.3482 1.86921 5.0986 1.48729 4.74754 1.21532C4.39648 0.943341 3.96429 0.79706 3.5202 0.799906H1.30001ZM18.3014 14.7999C16.6563 14.7999 15.3012 16.1549 15.3012 17.7999C15.3012 19.4449 16.6563 20.7999 18.3014 20.7999C19.9466 20.7999 21.3017 19.4449 21.3017 17.7999C21.3017 16.1549 19.9466 14.7999 18.3014 14.7999ZM9.30069 14.7999C7.65555 14.7999 6.30043 16.1549 6.30043 17.7999C6.30043 19.4449 7.65555 20.7999 9.30069 20.7999C10.9458 20.7999 12.3009 19.4449 12.3009 17.7999C12.3009 16.1549 10.9458 14.7999 9.30069 14.7999ZM9.30069 16.7999C9.86373 16.7999 10.3008 17.2379 10.3008 17.7999C10.3008 18.3629 9.86273 18.7999 9.30069 18.7999C8.73764 18.7999 8.3006 18.3619 8.3006 17.7999C8.3006 17.2369 8.73864 16.7999 9.30069 16.7999ZM18.3014 16.7999C18.8645 16.7999 19.3015 17.2379 19.3015 17.7999C19.3015 18.3629 18.8635 18.7999 18.3014 18.7999C17.7384 18.7999 17.3014 18.3619 17.3014 17.7999C17.3014 17.2369 17.7394 16.7999 18.3014 16.7999Z" fill="#0D61A4"/>
</svg>
