<svg width="35" height="35" viewBox="0 0 35 35" fill="none" xmlns="http://www.w3.org/2000/svg">
<path d="M19.775 4.34003C18.3146 3.7558 16.6854 3.7558 15.225 4.34003L5.15023 8.37378C4.66357 8.56841 4.24632 8.90427 3.9522 9.3381C3.65809 9.77194 3.50059 10.2839 3.49998 10.808V24.1885C3.49989 24.7133 3.65707 25.226 3.95122 25.6605C4.24538 26.095 4.66301 26.4314 5.15023 26.6263L15.225 30.6565C15.99 30.9629 16.8091 31.1117 17.633 31.094C17.207 30.5188 16.8466 29.8978 16.5585 29.2425C16.3256 29.1913 16.0973 29.1211 15.876 29.0325L5.79948 25.0023C5.637 24.9372 5.49778 24.8248 5.39982 24.6797C5.30187 24.5347 5.24967 24.3636 5.24998 24.1885V10.9165L16.625 15.4665V21.3588C17.0636 20.406 17.6547 19.5312 18.375 18.7688V15.4648L29.75 10.9148V16.7965C30.3765 17.1168 30.9627 17.5035 31.5 17.948V10.808C31.5001 10.2833 31.3429 9.77058 31.0487 9.33605C30.7546 8.90153 30.3369 8.56513 29.8497 8.37028L19.775 4.34003ZM15.876 5.96753C16.919 5.55029 18.0827 5.55029 19.1257 5.96753L28.2695 9.62503L24.2812 11.2175L13.5117 6.91253L15.8742 5.96753H15.876ZM11.1562 7.85228L21.9257 12.159L17.5 13.9318L6.73048 9.62328L11.1562 7.85403V7.85228ZM25.375 33.2483C27.4636 33.2483 29.4666 32.4186 30.9434 30.9417C32.4203 29.4649 33.25 27.4619 33.25 25.3733C33.25 23.2847 32.4203 21.2817 30.9434 19.8048C29.4666 18.328 27.4636 17.4983 25.375 17.4983C23.2864 17.4983 21.2834 18.328 19.8065 19.8048C18.3297 21.2817 17.5 23.2847 17.5 25.3733C17.5 27.4619 18.3297 29.4649 19.8065 30.9417C21.2834 32.4186 23.2864 33.2483 25.375 33.2483ZM25.9892 21.252L25.9945 21.2555L29.4945 24.7555C29.6585 24.9198 29.7506 25.1426 29.7505 25.3748C29.7503 25.607 29.6579 25.8296 29.4936 25.9937C29.4122 26.0749 29.3157 26.1393 29.2094 26.1832C29.1032 26.2272 28.9893 26.2497 28.8744 26.2496C28.6422 26.2495 28.4195 26.1571 28.2555 25.9928L26.25 23.9873V28.875C26.25 29.1071 26.1578 29.3297 25.9937 29.4937C25.8296 29.6578 25.607 29.75 25.375 29.75C25.1429 29.75 24.9204 29.6578 24.7563 29.4937C24.5922 29.3297 24.5 29.1071 24.5 28.875V23.9873L22.4945 25.9928C22.4132 26.0741 22.3168 26.1387 22.2106 26.1828C22.1044 26.2268 21.9906 26.2496 21.8756 26.2496C21.7606 26.2497 21.6468 26.2272 21.5405 26.1832C21.4343 26.1393 21.3377 26.0749 21.2564 25.9937C21.175 25.9124 21.1104 25.8159 21.0664 25.7098C21.0223 25.6036 20.9996 25.4897 20.9995 25.3748C20.9994 25.2598 21.022 25.1459 21.0659 25.0397C21.1098 24.9334 21.1742 24.8369 21.2555 24.7555L24.7555 21.2555C24.9186 21.0928 25.1393 21.001 25.3697 21H25.3802C25.6084 21.0011 25.827 21.0915 25.9892 21.252Z" fill="#0D61A4"/>
</svg>
