<svg width="36" height="35" viewBox="0 0 36 35" fill="none" xmlns="http://www.w3.org/2000/svg">
<path d="M20.6083 4.34003C19.1479 3.7558 17.5187 3.7558 16.0583 4.34003L5.98356 8.37378C5.4969 8.56841 5.07965 8.90427 4.78554 9.3381C4.49143 9.77194 4.33392 10.2839 4.33331 10.808V24.1885C4.33323 24.7133 4.4904 25.226 4.78456 25.6605C5.07872 26.095 5.49635 26.4314 5.98356 26.6263L16.0583 30.6565C16.8234 30.9629 17.6424 31.1117 18.4663 31.094C18.0404 30.5188 17.68 29.8978 17.3918 29.2425C17.159 29.1913 16.9307 29.1211 16.7093 29.0325L6.63281 25.0023C6.47033 24.9372 6.33112 24.8248 6.23316 24.6797C6.1352 24.5347 6.083 24.3636 6.08331 24.1885V10.9165L17.4583 15.4665V21.3588C17.8969 20.406 18.488 19.5312 19.2083 18.7688V15.4648L30.5833 10.9148V16.7965C31.2098 17.1168 31.7961 17.5035 32.3333 17.948V10.808C32.3334 10.2833 32.1762 9.77058 31.8821 9.33605C31.5879 8.90153 31.1703 8.56513 30.6831 8.37028L20.6083 4.34003ZM16.7093 5.96753C17.7524 5.55029 18.916 5.55029 19.9591 5.96753L29.1028 9.62503L25.1146 11.2175L14.3451 6.91253L16.7076 5.96753H16.7093ZM11.9896 7.85228L22.7591 12.159L18.3333 13.9318L7.56381 9.62328L11.9896 7.85403V7.85228ZM26.2083 33.2483C28.2969 33.2483 30.2999 32.4186 31.7768 30.9417C33.2536 29.4649 34.0833 27.4619 34.0833 25.3733C34.0833 23.2847 33.2536 21.2817 31.7768 19.8048C30.2999 18.328 28.2969 17.4983 26.2083 17.4983C24.1197 17.4983 22.1167 18.328 20.6398 19.8048C19.163 21.2817 18.3333 23.2847 18.3333 25.3733C18.3333 27.4619 19.163 29.4649 20.6398 30.9417C22.1167 32.4186 24.1197 33.2483 26.2083 33.2483ZM24.4583 26.761L29.0888 22.1305C29.2529 21.9662 29.4755 21.8738 29.7077 21.8737C29.8227 21.8736 29.9365 21.8962 30.0428 21.9401C30.149 21.984 30.2456 22.0484 30.3269 22.1297C30.4083 22.2109 30.4728 22.3074 30.5169 22.4135C30.561 22.5197 30.5837 22.6336 30.5838 22.7485C30.5839 22.8635 30.5613 22.9774 30.5174 23.0836C30.4735 23.1899 30.4091 23.2864 30.3278 23.3678L25.0778 28.6178C24.9965 28.6993 24.9 28.7639 24.7937 28.808C24.6874 28.8521 24.5734 28.8748 24.4583 28.8748C24.3432 28.8748 24.2293 28.8521 24.123 28.808C24.0167 28.7639 23.9201 28.6993 23.8388 28.6178L22.0888 26.8678C21.9247 26.7035 21.8327 26.4807 21.8328 26.2485C21.833 26.0163 21.9254 25.7937 22.0897 25.6297C22.254 25.4656 22.4767 25.3735 22.7089 25.3737C22.9411 25.3738 23.1637 25.4662 23.3278 25.6305L24.4583 26.761Z" fill="#0D61A4"/>
</svg>
