<svg width="36" height="35" viewBox="0 0 36 35" fill="none" xmlns="http://www.w3.org/2000/svg">
<path d="M20.4417 4.34003C18.9813 3.7558 17.3521 3.7558 15.8917 4.34003L5.81691 8.37378C5.33025 8.56841 4.913 8.90427 4.61888 9.3381C4.32477 9.77194 4.16727 10.2839 4.16666 10.808V24.1885C4.16657 24.7133 4.32375 25.226 4.6179 25.6605C4.91206 26.095 5.32969 26.4314 5.81691 26.6263L15.8917 30.6565C16.6567 30.9629 17.4757 31.1117 18.2997 31.094C17.8737 30.5188 17.5133 29.8978 17.2252 29.2425C16.9923 29.1913 16.764 29.1211 16.5427 29.0325L6.46616 25.0023C6.30368 24.9372 6.16446 24.8248 6.0665 24.6797C5.96854 24.5347 5.91635 24.3636 5.91666 24.1885V10.9165L17.2917 15.4665V21.3588C17.7302 20.406 18.3213 19.5312 19.0417 18.7688V15.4648L30.4167 10.9148V16.7965C31.0432 17.1168 31.6294 17.5035 32.1667 17.948V10.808C32.1667 10.2833 32.0096 9.77058 31.7154 9.33605C31.4213 8.90153 31.0036 8.56513 30.5164 8.37028L20.4417 4.34003ZM16.5427 5.96753C17.5857 5.55029 18.7493 5.55029 19.7924 5.96753L28.9362 9.62503L24.9479 11.2175L14.1784 6.91253L16.5409 5.96753H16.5427ZM11.8229 7.85228L22.5924 12.159L18.1667 13.9318L7.39716 9.62328L11.8229 7.85403V7.85228ZM33.9167 25.3733C33.9167 23.2847 33.087 21.2817 31.6101 19.8048C30.1333 18.328 28.1302 17.4983 26.0417 17.4983C23.9531 17.4983 21.95 18.328 20.4732 19.8048C18.9963 21.2817 18.1667 23.2847 18.1667 25.3733C18.1667 27.4619 18.9963 29.4649 20.4732 30.9417C21.95 32.4186 23.9531 33.2483 26.0417 33.2483C28.1302 33.2483 30.1333 32.4186 31.6101 30.9417C33.087 29.4649 33.9167 27.4619 33.9167 25.3733ZM21.9187 24.7608L21.9239 24.7555L25.4239 21.2555C25.5046 21.172 25.6012 21.1053 25.7079 21.0594C25.8147 21.0136 25.9295 20.9894 26.0457 20.9884C26.1619 20.9874 26.2771 21.0096 26.3846 21.0536C26.4922 21.0976 26.5898 21.1625 26.672 21.2447C26.7542 21.3268 26.8191 21.4245 26.8631 21.5321C26.9071 21.6396 26.9293 21.7548 26.9283 21.871C26.9272 21.9872 26.9031 22.102 26.8572 22.2088C26.8114 22.3155 26.7447 22.4121 26.6612 22.4928L24.6539 24.5H29.5417C29.7737 24.5 29.9963 24.5922 30.1604 24.7563C30.3245 24.9204 30.4167 25.143 30.4167 25.375C30.4167 25.6071 30.3245 25.8297 30.1604 25.9937C29.9963 26.1578 29.7737 26.25 29.5417 26.25H24.6539L26.6612 28.2573C26.7447 28.338 26.8114 28.4345 26.8572 28.5413C26.9031 28.6481 26.9272 28.7629 26.9283 28.8791C26.9293 28.9952 26.9071 29.1105 26.8631 29.218C26.8191 29.3255 26.7542 29.4232 26.672 29.5054C26.5898 29.5875 26.4922 29.6525 26.3846 29.6965C26.2771 29.7405 26.1619 29.7626 26.0457 29.7616C25.9295 29.7606 25.8147 29.7365 25.7079 29.6906C25.6012 29.6448 25.5046 29.5781 25.4239 29.4945L21.9239 25.9945C21.7608 25.8322 21.6684 25.6121 21.6667 25.382V25.3698C21.6677 25.1416 21.7582 24.923 21.9187 24.7608Z" fill="#0D61A4"/>
</svg>
