<svg class="svg-icon" style="width: 1em; height: 1em;vertical-align: middle;fill: currentColor;overflow: hidden;" viewBox="0 0 1024 1024" version="1.1" xmlns="http://www.w3.org/2000/svg"><path d="M732.16 855.04c1.98656 0 3.97312-0.28672 5.9392-0.88064 8.64256-2.62144 14.5408-10.58816 14.5408-19.59936l0-614.4c0-11.32544-9.15456-20.48-20.48-20.48l-409.6 0c-11.32544 0-20.48 9.15456-20.48 20.48l0 614.4c0 9.0112 5.89824 16.97792 14.5408 19.59936 8.62208 2.64192 17.98144-0.73728 22.97856-8.23296l187.76064-281.64096 187.76064 281.64096C718.97088 851.72224 725.44256 855.04 732.16 855.04zM711.68 766.91456l-167.28064-250.92096c-3.80928-5.69344-10.19904-9.1136-17.03936-9.1136s-13.23008 3.42016-17.03936 9.1136L343.04 766.91456 343.04 240.64l368.64 0L711.68 766.91456z"  /></svg>