<svg class="svg-icon" style="width: 1em; height: 1em;vertical-align: middle;fill: currentColor;overflow: hidden;" viewBox="0 0 1024 1024" version="1.1" xmlns="http://www.w3.org/2000/svg"><path d="M580.266667 0v247.808a266.922667 266.922667 0 0 0-136.533334 0V0zM512 785.066667a249.856 249.856 0 0 0 68.266667-8.874667V1024h-136.533334v-247.808a249.856 249.856 0 0 0 68.266667 8.874667zM273.066667 178.858667l100.352 98.304a273.066667 273.066667 0 0 0-96.256 96.256L178.858667 273.066667 101.717333 198.656 197.973333 101.717333zM922.282667 826.026667l-96.256 96.256-75.093334-76.458667-100.352-98.986667a265.557333 265.557333 0 0 0 96.256-96.256zM247.808 443.733333a266.922667 266.922667 0 0 0 0 136.533334H0v-136.533334zM1024 443.733333v136.533334h-247.808a266.922667 266.922667 0 0 0 0-136.533334zM373.418667 746.837333L273.066667 845.824l-75.093334 76.458667-96.256-96.256 175.445334-175.445334a265.557333 265.557333 0 0 0 96.256 96.256zM922.282667 198.656L845.141333 273.066667l-98.304 100.352a273.066667 273.066667 0 0 0-96.256-96.256L750.933333 178.858667l75.093334-77.141334z"  /><path d="M915.456 443.733333a397.994667 397.994667 0 0 0-68.266667-168.618666A387.754667 387.754667 0 0 0 750.933333 178.858667a397.312 397.312 0 0 0-169.301333-68.266667 382.293333 382.293333 0 0 0-136.533333 0 389.802667 389.802667 0 0 0-172.032 68.266667A358.4 358.4 0 0 0 178.858667 273.066667a397.994667 397.994667 0 0 0-68.266667 168.618666 382.293333 382.293333 0 0 0 0 136.533334 397.994667 397.994667 0 0 0 68.266667 168.618666A371.370667 371.370667 0 0 0 273.066667 845.824a397.312 397.312 0 0 0 168.618666 68.266667 382.293333 382.293333 0 0 0 136.533334 0 397.312 397.312 0 0 0 168.618666-68.266667A371.370667 371.370667 0 0 0 845.141333 750.933333a397.994667 397.994667 0 0 0 68.266667-168.618666 382.293333 382.293333 0 0 0 0-136.533334z m-168.618667 204.8a265.557333 265.557333 0 0 1-96.256 96.256 255.317333 255.317333 0 0 1-68.266666 29.354667 266.922667 266.922667 0 0 1-136.533334 0 255.317333 255.317333 0 0 1-68.266666-29.354667 265.557333 265.557333 0 0 1-100.352-94.208 247.125333 247.125333 0 0 1-29.354667-68.266666 266.922667 266.922667 0 0 1 0-136.533334 255.317333 255.317333 0 0 1 29.354667-68.266666 273.066667 273.066667 0 0 1 96.256-100.352 255.317333 255.317333 0 0 1 68.266666-29.354667 266.922667 266.922667 0 0 1 136.533334 0 255.317333 255.317333 0 0 1 68.266666 29.354667 273.066667 273.066667 0 0 1 96.256 96.256 255.317333 255.317333 0 0 1 29.354667 68.266666 266.922667 266.922667 0 0 1 0 136.533334 247.125333 247.125333 0 0 1-25.258667 72.362666z"  /></svg>