<svg class="svg-icon" style="width: 1em; height: 1em;vertical-align: middle;fill: currentColor;overflow: hidden;" viewBox="0 0 1024 1024" version="1.1" xmlns="http://www.w3.org/2000/svg"><path d="M512 0C229.216 0 0 229.216 0 512c0 282.768 229.216 512 512 512 282.752 0 512-229.232 512-512C1024 229.216 794.752 0 512 0zM512 992C246.896 992 32 777.088 32 512 32 246.896 246.896 32 512 32c265.056 0 480 214.896 480 480C992 777.088 777.056 992 512 992z"  /><path d="M676.384 460.864l0-106.864c0-72.032-71.808-155.76-164.384-155.76s-164.384 83.728-164.384 155.76l0 106.864C301.168 492.176 272 541.136 272 610c0 132.544 107.472 192 240 192s240-59.456 240-192C752 541.136 722.848 492.176 676.384 460.864zM379.616 354c0-56.048 59.056-123.76 132.384-123.76 73.328 0 132.384 67.696 132.384 123.76l0 89.072c-37.952-16.912-83.44-25.072-132.384-25.072s-94.432 8.176-132.384 25.072L379.616 354zM512 770c-114.864 0-208-49.552-208-160 0-110.464 93.136-160 208-160s208 49.536 208 160C720 720.448 626.864 770 512 770z"  /><path d="M514 507.664c-35.296 0-64 28.704-64 64 0 29.728 20.48 54.576 48 61.728l0 12.592c0 8.832 7.168 16 16 16 8.848 0 16-7.168 16-16l0-12.592c27.536-7.152 48-32 48-61.728C578 536.368 549.296 507.664 514 507.664zM514 603.664c-17.648 0-32-14.352-32-32s14.352-32 32-32c17.648 0 32 14.352 32 32S531.648 603.664 514 603.664z"  /></svg>