<svg class="svg-icon" style="width: 1em; height: 1em;vertical-align: middle;fill: currentColor;overflow: hidden;" viewBox="0 0 1024 1024" version="1.1" xmlns="http://www.w3.org/2000/svg"><path d="M966.0928 981.0944l-304.2816-331.9808c68.5568-71.7312 106.24-165.5296 106.24-265.1136 0-102.5536-39.936-199.0144-112.4864-271.5136s-168.96-112.4864-271.5136-112.4864-199.0144 39.936-271.5136 112.4864-112.4864 168.96-112.4864 271.5136 39.936 199.0144 112.4864 271.5136 168.96 112.4864 271.5136 112.4864c88.3712 0 172.1344-29.6448 240.0256-84.224l304.2816 331.9296c5.0688 5.5296 11.9296 8.2944 18.8928 8.2944 6.1952 0 12.3904-2.2016 17.3056-6.7072 10.4448-9.5744 11.1104-25.7536 1.5872-36.1472zM51.2 384c0-183.5008 149.2992-332.8 332.8-332.8s332.8 149.2992 332.8 332.8-149.2992 332.8-332.8 332.8-332.8-149.2992-332.8-332.8z"  /></svg>