<svg class="svg-icon" style="width: 1em; height: 1em;vertical-align: middle;fill: currentColor;overflow: hidden;" viewBox="0 0 1024 1024" version="1.1" xmlns="http://www.w3.org/2000/svg"><path d="M974.222222 875.633778a98.602667 98.602667 0 0 1-98.588444 98.588444H148.366222A98.602667 98.602667 0 0 1 49.777778 875.633778V375.921778a98.602667 98.602667 0 0 1 98.588444-98.588445h727.281778a98.602667 98.602667 0 0 1 98.588444 98.588445v499.712z m-56.888889-499.712a41.699556 41.699556 0 0 0-41.699555-41.699556H148.366222A41.699556 41.699556 0 0 0 106.666667 375.921778v499.726222a41.699556 41.699556 0 0 0 41.699555 41.699556h727.281778a41.699556 41.699556 0 0 0 41.699556-41.699556V375.921778z" fill="" /><path d="M177.777778 533.333333a14.222222 14.222222 0 0 1-14.222222-14.222222v-54.072889c0-38.698667 32.896-73.927111 69.731555-73.927111h256.725333a14.222222 14.222222 0 1 1 0 28.444445H233.287111c-20.778667 0-41.287111 22.954667-41.287111 45.482666V519.111111a14.222222 14.222222 0 0 1-14.222222 14.222222zM177.777778 604.444444a14.222222 14.222222 0 0 1-14.222222-14.222222v-28.444444a14.222222 14.222222 0 1 1 28.444444 0v28.444444a14.222222 14.222222 0 0 1-14.222222 14.222222zM859.790222 220.444444h-696.888889a28.444444 28.444444 0 0 1 0-56.888888h696.888889a28.444444 28.444444 0 0 1 0 56.888888z" fill="" /><path d="M774.456889 106.666667h-526.222222a28.444444 28.444444 0 0 1 0-56.888889h526.222222a28.444444 28.444444 0 0 1 0 56.888889z" fill="" /></svg>