<svg class="svg-icon" style="width: 1em; height: 1em;vertical-align: middle;fill: currentColor;overflow: hidden;" viewBox="0 0 1024 1024" version="1.1" xmlns="http://www.w3.org/2000/svg"><path d="M384.072 479.534H207.881c-52.869 0-95.881-43.015-95.881-95.887V207.855c0-52.872 43.012-95.887 95.881-95.887h176.191c52.869 0 95.881 43.015 95.881 95.887v175.792c0.001 52.872-43.011 95.887-95.881 95.887zM207.881 175.893c-17.623 0-31.96 14.338-31.96 31.962v175.792c0 17.624 14.337 31.962 31.96 31.962h176.191c17.623 0 31.96-14.338 31.96-31.962V207.855c0-17.624-14.337-31.962-31.96-31.962H207.881zM728.024 487.48c-22.263 0-44.528-8.464-61.478-25.392L561.534 357.211c-16.436-16.414-25.487-38.241-25.487-61.46s9.051-45.046 25.486-61.46l105.013-104.877c33.899-33.856 89.057-33.856 122.954 0h-0.001l105.014 104.877C910.949 250.705 920 272.532 920 295.751s-9.051 45.046-25.486 61.46L789.499 462.089c-16.947 16.927-39.212 25.391-61.475 25.391z m0-317.574c-5.396 0-10.789 2.051-14.897 6.153L608.114 280.936c-3.965 3.96-6.148 9.221-6.148 14.815s2.183 10.855 6.148 14.815l105.014 104.877c8.212 8.203 21.578 8.204 29.792 0l105.015-104.878c3.965-3.96 6.148-9.221 6.148-14.815s-2.183-10.855-6.148-14.815L742.92 176.059h-0.001c-4.106-4.102-9.502-6.153-14.895-6.153zM384.072 912.022H207.881c-52.869 0-95.881-43.015-95.881-95.887V640.343c0-52.872 43.012-95.887 95.881-95.887h176.191c52.869 0 95.881 43.015 95.881 95.887v175.792c0.001 52.872-43.011 95.887-95.881 95.887zM207.881 608.381c-17.623 0-31.96 14.339-31.96 31.962v175.792c0 17.624 14.337 31.962 31.96 31.962h176.191c17.623 0 31.96-14.339 31.96-31.962V640.343c0-17.624-14.337-31.962-31.96-31.962H207.881zM816.119 911.522H639.928c-52.869 0-95.881-43.015-95.881-95.887V639.844c0-52.872 43.012-95.887 95.881-95.887h176.191c52.869 0 95.881 43.015 95.881 95.887v175.792c0 52.872-43.012 95.886-95.881 95.886z m-176.191-303.64c-17.623 0-31.96 14.339-31.96 31.962v175.792c0 17.624 14.338 31.962 31.96 31.962h176.191c17.623 0 31.96-14.339 31.96-31.962V639.844c0-17.624-14.338-31.962-31.96-31.962H639.928z"  /></svg>