<svg class="svg-icon" style="width: 1em; height: 1em;vertical-align: middle;fill: currentColor;overflow: hidden;" viewBox="0 0 1024 1024" version="1.1" xmlns="http://www.w3.org/2000/svg"><path d="M631.893333 523.946667a159.146667 159.146667 0 0 0 42.666667-106.666667 161.28 161.28 0 0 0-322.56 0 159.146667 159.146667 0 0 0 42.666667 106.666667A253.44 253.44 0 0 0 256 720.64a42.666667 42.666667 0 0 0 85.333333 9.386667 170.666667 170.666667 0 0 1 338.773334 0A42.666667 42.666667 0 0 0 725.333333 768h4.693334a42.666667 42.666667 0 0 0 37.546666-46.933333 253.44 253.44 0 0 0-135.68-197.12zM512 493.226667a75.946667 75.946667 0 1 1 75.946667-75.946667A75.946667 75.946667 0 0 1 512 493.226667zM810.666667 85.333333H213.333333a128 128 0 0 0-128 128v597.333334a128 128 0 0 0 128 128h597.333334a128 128 0 0 0 128-128V213.333333a128 128 0 0 0-128-128z m42.666666 725.333334a42.666667 42.666667 0 0 1-42.666666 42.666666H213.333333a42.666667 42.666667 0 0 1-42.666666-42.666666V213.333333a42.666667 42.666667 0 0 1 42.666666-42.666666h597.333334a42.666667 42.666667 0 0 1 42.666666 42.666666z"  /></svg>